<?xml version="1.0" encoding="UTF-8"?>
<svg width="80px" height="80px" viewBox="0 0 80 80" version="1.1" xmlns="http://www.w3.org/2000/svg" xmlns:xlink="http://www.w3.org/1999/xlink">
    <title>unranked</title>
    <g id="unranked" stroke="none" stroke-width="1" fill="none" fill-rule="evenodd">
        <circle id="Oval" fill="#43454F" cx="40" cy="40" r="18"></circle>
        <polygon id="Tier-1,-3" fill="#43454F" points="37 4 43 4 41 76 39 76"></polygon>
        <g id="?" transform="translate(33.736816, 28.586914)" fill="#0F0F11" fill-rule="nonzero">
            <path d="M6.66503906,0 C8.03222656,0 9.31396484,0.279134115 10.5102539,0.837402344 C11.706543,1.39567057 12.6749674,2.19889323 13.4155273,3.24707031 C14.1560872,4.2952474 14.5263672,5.5485026 14.5263672,7.00683594 C14.5263672,7.89550781 14.3155924,8.6702474 13.894043,9.33105469 C13.4724935,9.99186198 12.9484049,10.5843099 12.3217773,11.1083984 C11.6951497,11.632487 11.0742188,12.1166992 10.4589844,12.5610352 C9.84375,13.0053711 9.33105469,13.4383138 8.92089844,13.8598633 C8.51074219,14.2814128 8.31705729,14.7428385 8.33984375,15.2441406 L8.37402344,15.9619141 L4.03320312,15.9619141 L4.03320312,14.5947266 C4.03320312,14.0934245 4.23258464,13.6149089 4.63134766,13.1591797 C5.03011068,12.7034505 5.52571615,12.253418 6.11816406,11.809082 C6.71061198,11.3647461 7.30875651,10.9090169 7.91259766,10.4418945 C8.5164388,9.97477214 9.01774089,9.49625651 9.41650391,9.00634766 C9.81526693,8.5164388 10.0146484,7.99804688 10.0146484,7.45117188 C10.0146484,6.51692708 9.64436849,5.75358073 8.90380859,5.16113281 C8.1632487,4.5686849 7.1891276,4.27246094 5.98144531,4.27246094 C4.79654948,4.27246094 3.70849609,4.49462891 2.71728516,4.93896484 C1.72607422,5.38330078 0.8203125,6.08398438 0,7.04101562 L0,2.52929688 C0.706380208,1.80013021 1.62353516,1.19628906 2.75146484,0.717773438 C3.87939453,0.239257813 5.18391927,0 6.66503906,0 Z M6.35742188,18.5595703 C7.109375,18.5595703 7.75309245,18.8273112 8.28857422,19.362793 C8.82405599,19.8982747 9.09179688,20.5419922 9.09179688,21.2939453 C9.09179688,22.0458984 8.82405599,22.6896159 8.28857422,23.2250977 C7.75309245,23.7605794 7.109375,24.0283203 6.35742188,24.0283203 C5.60546875,24.0283203 4.9617513,23.7605794 4.42626953,23.2250977 C3.89078776,22.6896159 3.62304688,22.0458984 3.62304688,21.2939453 C3.62304688,20.5419922 3.89078776,19.8982747 4.42626953,19.362793 C4.9617513,18.8273112 5.60546875,18.5595703 6.35742188,18.5595703 Z" id="Shape"></path>
        </g>
    </g>
</svg>